<?xml version="1.0" encoding="UTF-8"?>
<!DOCTYPE svg PUBLIC "-//W3C//DTD SVG 1.1//EN" "http://www.w3.org/Graphics/SVG/1.1/DTD/svg11.dtd">
<!-- Creator: CorelDRAW X7 -->
<svg xmlns="http://www.w3.org/2000/svg" xml:space="preserve" width="41.2531mm" height="43.2363mm" version="1.1" style="shape-rendering:geometricPrecision; text-rendering:geometricPrecision; image-rendering:optimizeQuality; fill-rule:evenodd; clip-rule:evenodd"
viewBox="0 0 1985 2080"
 xmlns:xlink="http://www.w3.org/1999/xlink">
 <defs>
  <style type="text/css">
   <![CDATA[
    .fil2 {fill:#FEFEFE}
    .fil0 {fill:#008DD2}
    .fil1 {fill:#052C4D}
   ]]>
  </style>
 </defs>
 <g id="Layer_x0020_1">
  <metadata id="CorelCorpID_0Corel-Layer"/>
  <g id="_2529844719328">
   <path class="fil0" d="M197 534c13,0 93,1 93,1l0 116 -60 0c-75,0 -72,111 0,111l1443 0c95,0 206,97 206,195l0 177c-2,0 -3,0 -6,0l-472 0c-50,0 -90,40 -90,90l0 400c0,50 40,91 90,91l472 0c3,0 4,0 6,-1l0 169c0,109 -88,197 -196,197l-1486 0c-108,0 -197,-88 -197,-197l0 -1152c0,-108 89,-197 197,-197z"/>
   <path class="fil1" d="M1433 1214l506 0c25,0 46,21 46,46l0 325c0,25 -21,46 -46,46l-506 0c-25,0 -45,-21 -45,-46l0 -325c0,-25 20,-46 45,-46zm152 121c48,0 88,39 88,87 0,49 -40,88 -88,88 -48,0 -87,-39 -87,-88 0,-48 39,-87 87,-87z"/>
   <rect class="fil1" x="402" y="330" width="296" height="321"/>
   <rect class="fil1" x="815" y="169" width="296" height="483"/>
   <rect class="fil1" x="1236" width="296" height="652"/>
   <g>
    <path class="fil2" d="M337 1225l-13 399 389 118 13 -396 -141 -44 -7 198 50 11 -106 92 -95 -148 49 14 3 -201c0,0 -142,-43 -142,-43z"/>
    <path class="fil2" d="M967 1620l14 -399 -389 -118 -14 396 142 44 6 -198 -50 -11 107 -93 94 149 -48 -14 -4 201c0,0 143,43 142,43z"/>
   </g>
  </g>
 </g>
</svg>
