<svg width="111" height="87" viewBox="0 0 111 87" fill="none" xmlns="http://www.w3.org/2000/svg">
<path d="M23.27 9.09C23.27 9.41 23.19 9.71667 23.03 10.01C22.87 10.2967 22.6333 10.5367 22.32 10.73C22.0133 10.9233 21.6433 11.0333 21.21 11.06V11.87H20.67V11.06C20.0633 11.0067 19.57 10.8133 19.19 10.48C18.81 10.14 18.6167 9.71 18.61 9.19H19.58C19.6067 9.47 19.71 9.71333 19.89 9.92C20.0767 10.1267 20.3367 10.2567 20.67 10.31V7.81C20.2233 7.69667 19.8633 7.58 19.59 7.46C19.3167 7.34 19.0833 7.15333 18.89 6.9C18.6967 6.64667 18.6 6.30667 18.6 5.88C18.6 5.34 18.7867 4.89333 19.16 4.54C19.54 4.18667 20.0433 3.99 20.67 3.95V3.12H21.21V3.95C21.7767 3.99667 22.2333 4.18 22.58 4.5C22.9267 4.81333 23.1267 5.22333 23.18 5.73H22.21C22.1767 5.49667 22.0733 5.28667 21.9 5.1C21.7267 4.90667 21.4967 4.78 21.21 4.72V7.16C21.65 7.27333 22.0067 7.39 22.28 7.51C22.56 7.62333 22.7933 7.80667 22.98 8.06C23.1733 8.31333 23.27 8.65667 23.27 9.09ZM19.53 5.83C19.53 6.15667 19.6267 6.40667 19.82 6.58C20.0133 6.75333 20.2967 6.89667 20.67 7.01V4.7C20.3233 4.73333 20.0467 4.84667 19.84 5.04C19.6333 5.22667 19.53 5.49 19.53 5.83ZM21.21 10.32C21.57 10.28 21.85 10.15 22.05 9.93C22.2567 9.71 22.36 9.44667 22.36 9.14C22.36 8.81333 22.26 8.56333 22.06 8.39C21.86 8.21 21.5767 8.06667 21.21 7.96V10.32ZM27.0467 4.6V3.77H28.9267V11H28.0067V4.6H27.0467ZM34.9898 4.56H31.4798V6.84C31.6332 6.62667 31.8598 6.45333 32.1598 6.32C32.4598 6.18 32.7832 6.11 33.1298 6.11C33.6832 6.11 34.1332 6.22667 34.4798 6.46C34.8265 6.68667 35.0732 6.98333 35.2198 7.35C35.3732 7.71 35.4498 8.09333 35.4498 8.5C35.4498 8.98 35.3598 9.41 35.1798 9.79C34.9998 10.17 34.7232 10.47 34.3498 10.69C33.9832 10.91 33.5265 11.02 32.9798 11.02C32.2798 11.02 31.7132 10.84 31.2798 10.48C30.8465 10.12 30.5832 9.64 30.4898 9.04H31.3798C31.4665 9.42 31.6498 9.71667 31.9298 9.93C32.2098 10.1433 32.5632 10.25 32.9898 10.25C33.5165 10.25 33.9132 10.0933 34.1798 9.78C34.4465 9.46 34.5798 9.04 34.5798 8.52C34.5798 8 34.4465 7.6 34.1798 7.32C33.9132 7.03333 33.5198 6.89 32.9998 6.89C32.6465 6.89 32.3365 6.97667 32.0698 7.15C31.8098 7.31667 31.6198 7.54667 31.4998 7.84H30.6398V3.76H34.9898V4.56Z" fill="#052C4D"/>
<path d="M81.27 11.09C81.27 11.41 81.19 11.7167 81.03 12.01C80.87 12.2967 80.6333 12.5367 80.32 12.73C80.0133 12.9233 79.6433 13.0333 79.21 13.06V13.87H78.67V13.06C78.0633 13.0067 77.57 12.8133 77.19 12.48C76.81 12.14 76.6167 11.71 76.61 11.19H77.58C77.6067 11.47 77.71 11.7133 77.89 11.92C78.0767 12.1267 78.3367 12.2567 78.67 12.31V9.81C78.2233 9.69667 77.8633 9.58 77.59 9.46C77.3167 9.34 77.0833 9.15333 76.89 8.9C76.6967 8.64667 76.6 8.30667 76.6 7.88C76.6 7.34 76.7867 6.89333 77.16 6.54C77.54 6.18667 78.0433 5.99 78.67 5.95V5.12H79.21V5.95C79.7767 5.99667 80.2333 6.18 80.58 6.5C80.9267 6.81333 81.1267 7.22333 81.18 7.73H80.21C80.1767 7.49667 80.0733 7.28667 79.9 7.1C79.7267 6.90667 79.4967 6.78 79.21 6.72V9.16C79.65 9.27333 80.0067 9.39 80.28 9.51C80.56 9.62333 80.7933 9.80667 80.98 10.06C81.1733 10.3133 81.27 10.6567 81.27 11.09ZM77.53 7.83C77.53 8.15667 77.6267 8.40667 77.82 8.58C78.0133 8.75333 78.2967 8.89667 78.67 9.01V6.7C78.3233 6.73333 78.0467 6.84667 77.84 7.04C77.6333 7.22667 77.53 7.49 77.53 7.83ZM79.21 12.32C79.57 12.28 79.85 12.15 80.05 11.93C80.2567 11.71 80.36 11.4467 80.36 11.14C80.36 10.8133 80.26 10.5633 80.06 10.39C79.86 10.21 79.5767 10.0667 79.21 9.96V12.32ZM85.1767 12.27C86.0234 11.59 86.6867 11.0333 87.1667 10.6C87.6467 10.16 88.0501 9.70333 88.3767 9.23C88.7101 8.75 88.8767 8.28 88.8767 7.82C88.8767 7.38667 88.7701 7.04667 88.5567 6.8C88.3501 6.54667 88.0134 6.42 87.5467 6.42C87.0934 6.42 86.7401 6.56333 86.4867 6.85C86.2401 7.13 86.1067 7.50667 86.0867 7.98H85.2067C85.2334 7.23333 85.4601 6.65667 85.8867 6.25C86.3134 5.84333 86.8634 5.64 87.5367 5.64C88.2234 5.64 88.7667 5.83 89.1667 6.21C89.5734 6.59 89.7767 7.11333 89.7767 7.78C89.7767 8.33333 89.6101 8.87333 89.2767 9.4C88.9501 9.92 88.5767 10.38 88.1567 10.78C87.7367 11.1733 87.2001 11.6333 86.5467 12.16H89.9867V12.92H85.1767V12.27ZM90.9287 9.31C90.9287 8.16333 91.1153 7.27 91.4887 6.63C91.862 5.98333 92.5153 5.66 93.4487 5.66C94.3753 5.66 95.0253 5.98333 95.3987 6.63C95.772 7.27 95.9587 8.16333 95.9587 9.31C95.9587 10.4767 95.772 11.3833 95.3987 12.03C95.0253 12.6767 94.3753 13 93.4487 13C92.5153 13 91.862 12.6767 91.4887 12.03C91.1153 11.3833 90.9287 10.4767 90.9287 9.31ZM95.0587 9.31C95.0587 8.73 95.0187 8.24 94.9387 7.84C94.8653 7.43333 94.7087 7.10667 94.4687 6.86C94.2353 6.61333 93.8953 6.49 93.4487 6.49C92.9953 6.49 92.6487 6.61333 92.4087 6.86C92.1753 7.10667 92.0187 7.43333 91.9387 7.84C91.8653 8.24 91.8287 8.73 91.8287 9.31C91.8287 9.91 91.8653 10.4133 91.9387 10.82C92.0187 11.2267 92.1753 11.5533 92.4087 11.8C92.6487 12.0467 92.9953 12.17 93.4487 12.17C93.8953 12.17 94.2353 12.0467 94.4687 11.8C94.7087 11.5533 94.8653 11.2267 94.9387 10.82C95.0187 10.4133 95.0587 9.91 95.0587 9.31Z" fill="#89D200"/>
<path d="M94.27 61.09C94.27 61.41 94.19 61.7167 94.03 62.01C93.87 62.2967 93.6333 62.5367 93.32 62.73C93.0133 62.9233 92.6433 63.0333 92.21 63.06V63.87H91.67V63.06C91.0633 63.0067 90.57 62.8133 90.19 62.48C89.81 62.14 89.6167 61.71 89.61 61.19H90.58C90.6067 61.47 90.71 61.7133 90.89 61.92C91.0767 62.1267 91.3367 62.2567 91.67 62.31V59.81C91.2233 59.6967 90.8633 59.58 90.59 59.46C90.3167 59.34 90.0833 59.1533 89.89 58.9C89.6967 58.6467 89.6 58.3067 89.6 57.88C89.6 57.34 89.7867 56.8933 90.16 56.54C90.54 56.1867 91.0433 55.99 91.67 55.95V55.12H92.21V55.95C92.7767 55.9967 93.2333 56.18 93.58 56.5C93.9267 56.8133 94.1267 57.2233 94.18 57.73H93.21C93.1767 57.4967 93.0733 57.2867 92.9 57.1C92.7267 56.9067 92.4967 56.78 92.21 56.72V59.16C92.65 59.2733 93.0067 59.39 93.28 59.51C93.56 59.6233 93.7933 59.8067 93.98 60.06C94.1733 60.3133 94.27 60.6567 94.27 61.09ZM90.53 57.83C90.53 58.1567 90.6267 58.4067 90.82 58.58C91.0133 58.7533 91.2967 58.8967 91.67 59.01V56.7C91.3233 56.7333 91.0467 56.8467 90.84 57.04C90.6333 57.2267 90.53 57.49 90.53 57.83ZM92.21 62.32C92.57 62.28 92.85 62.15 93.05 61.93C93.2567 61.71 93.36 61.4467 93.36 61.14C93.36 60.8133 93.26 60.5633 93.06 60.39C92.86 60.21 92.5767 60.0667 92.21 59.96V62.32ZM102.897 56.56H99.3867V58.84C99.5401 58.6267 99.7667 58.4533 100.067 58.32C100.367 58.18 100.69 58.11 101.037 58.11C101.59 58.11 102.04 58.2267 102.387 58.46C102.733 58.6867 102.98 58.9833 103.127 59.35C103.28 59.71 103.357 60.0933 103.357 60.5C103.357 60.98 103.267 61.41 103.087 61.79C102.907 62.17 102.63 62.47 102.257 62.69C101.89 62.91 101.433 63.02 100.887 63.02C100.187 63.02 99.6201 62.84 99.1867 62.48C98.7534 62.12 98.4901 61.64 98.3967 61.04H99.2867C99.3734 61.42 99.5567 61.7167 99.8367 61.93C100.117 62.1433 100.47 62.25 100.897 62.25C101.423 62.25 101.82 62.0933 102.087 61.78C102.353 61.46 102.487 61.04 102.487 60.52C102.487 60 102.353 59.6 102.087 59.32C101.82 59.0333 101.427 58.89 100.907 58.89C100.553 58.89 100.243 58.9767 99.9767 59.15C99.7167 59.3167 99.5267 59.5467 99.4067 59.84H98.5467V55.76H102.897V56.56ZM104.456 59.31C104.456 58.1633 104.643 57.27 105.016 56.63C105.389 55.9833 106.043 55.66 106.976 55.66C107.903 55.66 108.553 55.9833 108.926 56.63C109.299 57.27 109.486 58.1633 109.486 59.31C109.486 60.4767 109.299 61.3833 108.926 62.03C108.553 62.6767 107.903 63 106.976 63C106.043 63 105.389 62.6767 105.016 62.03C104.643 61.3833 104.456 60.4767 104.456 59.31ZM108.586 59.31C108.586 58.73 108.546 58.24 108.466 57.84C108.393 57.4333 108.236 57.1067 107.996 56.86C107.763 56.6133 107.423 56.49 106.976 56.49C106.523 56.49 106.176 56.6133 105.936 56.86C105.703 57.1067 105.546 57.4333 105.466 57.84C105.393 58.24 105.356 58.73 105.356 59.31C105.356 59.91 105.393 60.4133 105.466 60.82C105.546 61.2267 105.703 61.5533 105.936 61.8C106.176 62.0467 106.523 62.17 106.976 62.17C107.423 62.17 107.763 62.0467 107.996 61.8C108.236 61.5533 108.393 61.2267 108.466 60.82C108.546 60.4133 108.586 59.91 108.586 59.31Z" fill="#008DD2"/>
<path d="M35.27 81.09C35.27 81.41 35.19 81.7167 35.03 82.01C34.87 82.2967 34.6333 82.5367 34.32 82.73C34.0133 82.9233 33.6433 83.0333 33.21 83.06V83.87H32.67V83.06C32.0633 83.0067 31.57 82.8133 31.19 82.48C30.81 82.14 30.6167 81.71 30.61 81.19H31.58C31.6067 81.47 31.71 81.7133 31.89 81.92C32.0767 82.1267 32.3367 82.2567 32.67 82.31V79.81C32.2233 79.6967 31.8633 79.58 31.59 79.46C31.3167 79.34 31.0833 79.1533 30.89 78.9C30.6967 78.6467 30.6 78.3067 30.6 77.88C30.6 77.34 30.7867 76.8933 31.16 76.54C31.54 76.1867 32.0433 75.99 32.67 75.95V75.12H33.21V75.95C33.7767 75.9967 34.2333 76.18 34.58 76.5C34.9267 76.8133 35.1267 77.2233 35.18 77.73H34.21C34.1767 77.4967 34.0733 77.2867 33.9 77.1C33.7267 76.9067 33.4967 76.78 33.21 76.72V79.16C33.65 79.2733 34.0067 79.39 34.28 79.51C34.56 79.6233 34.7933 79.8067 34.98 80.06C35.1733 80.3133 35.27 80.6567 35.27 81.09ZM31.53 77.83C31.53 78.1567 31.6267 78.4067 31.82 78.58C32.0133 78.7533 32.2967 78.8967 32.67 79.01V76.7C32.3233 76.7333 32.0467 76.8467 31.84 77.04C31.6333 77.2267 31.53 77.49 31.53 77.83ZM33.21 82.32C33.57 82.28 33.85 82.15 34.05 81.93C34.2567 81.71 34.36 81.4467 34.36 81.14C34.36 80.8133 34.26 80.5633 34.06 80.39C33.86 80.21 33.5767 80.0667 33.21 79.96V82.32ZM39.0467 76.6V75.77H40.9267V83H40.0067V76.6H39.0467ZM46.9898 76.56H43.4798V78.84C43.6332 78.6267 43.8598 78.4533 44.1598 78.32C44.4598 78.18 44.7832 78.11 45.1298 78.11C45.6832 78.11 46.1332 78.2267 46.4798 78.46C46.8265 78.6867 47.0732 78.9833 47.2198 79.35C47.3732 79.71 47.4498 80.0933 47.4498 80.5C47.4498 80.98 47.3598 81.41 47.1798 81.79C46.9998 82.17 46.7232 82.47 46.3498 82.69C45.9832 82.91 45.5265 83.02 44.9798 83.02C44.2798 83.02 43.7132 82.84 43.2798 82.48C42.8465 82.12 42.5832 81.64 42.4898 81.04H43.3798C43.4665 81.42 43.6498 81.7167 43.9298 81.93C44.2098 82.1433 44.5632 82.25 44.9898 82.25C45.5165 82.25 45.9132 82.0933 46.1798 81.78C46.4465 81.46 46.5798 81.04 46.5798 80.52C46.5798 80 46.4465 79.6 46.1798 79.32C45.9132 79.0333 45.5198 78.89 44.9998 78.89C44.6465 78.89 44.3365 78.9767 44.0698 79.15C43.8098 79.3167 43.6198 79.5467 43.4998 79.84H42.6398V75.76H46.9898V76.56Z" fill="#FFB412"/>
<path d="M18.27 65.09C18.27 65.41 18.19 65.7167 18.03 66.01C17.87 66.2967 17.6333 66.5367 17.32 66.73C17.0133 66.9233 16.6433 67.0333 16.21 67.06V67.87H15.67V67.06C15.0633 67.0067 14.57 66.8133 14.19 66.48C13.81 66.14 13.6167 65.71 13.61 65.19H14.58C14.6067 65.47 14.71 65.7133 14.89 65.92C15.0767 66.1267 15.3367 66.2567 15.67 66.31V63.81C15.2233 63.6967 14.8633 63.58 14.59 63.46C14.3167 63.34 14.0833 63.1533 13.89 62.9C13.6967 62.6467 13.6 62.3067 13.6 61.88C13.6 61.34 13.7867 60.8933 14.16 60.54C14.54 60.1867 15.0433 59.99 15.67 59.95V59.12H16.21V59.95C16.7767 59.9967 17.2333 60.18 17.58 60.5C17.9267 60.8133 18.1267 61.2233 18.18 61.73H17.21C17.1767 61.4967 17.0733 61.2867 16.9 61.1C16.7267 60.9067 16.4967 60.78 16.21 60.72V63.16C16.65 63.2733 17.0067 63.39 17.28 63.51C17.56 63.6233 17.7933 63.8067 17.98 64.06C18.1733 64.3133 18.27 64.6567 18.27 65.09ZM14.53 61.83C14.53 62.1567 14.6267 62.4067 14.82 62.58C15.0133 62.7533 15.2967 62.8967 15.67 63.01V60.7C15.3233 60.7333 15.0467 60.8467 14.84 61.04C14.6333 61.2267 14.53 61.49 14.53 61.83ZM16.21 66.32C16.57 66.28 16.85 66.15 17.05 65.93C17.2567 65.71 17.36 65.4467 17.36 65.14C17.36 64.8133 17.26 64.5633 17.06 64.39C16.86 64.21 16.5767 64.0667 16.21 63.96V66.32ZM26.8967 60.56H23.3867V62.84C23.5401 62.6267 23.7667 62.4533 24.0667 62.32C24.3667 62.18 24.6901 62.11 25.0367 62.11C25.5901 62.11 26.0401 62.2267 26.3867 62.46C26.7334 62.6867 26.9801 62.9833 27.1267 63.35C27.2801 63.71 27.3567 64.0933 27.3567 64.5C27.3567 64.98 27.2667 65.41 27.0867 65.79C26.9067 66.17 26.6301 66.47 26.2567 66.69C25.8901 66.91 25.4334 67.02 24.8867 67.02C24.1867 67.02 23.6201 66.84 23.1867 66.48C22.7534 66.12 22.4901 65.64 22.3967 65.04H23.2867C23.3734 65.42 23.5567 65.7167 23.8367 65.93C24.1167 66.1433 24.4701 66.25 24.8967 66.25C25.4234 66.25 25.8201 66.0933 26.0867 65.78C26.3534 65.46 26.4867 65.04 26.4867 64.52C26.4867 64 26.3534 63.6 26.0867 63.32C25.8201 63.0333 25.4267 62.89 24.9067 62.89C24.5534 62.89 24.2434 62.9767 23.9767 63.15C23.7167 63.3167 23.5267 63.5467 23.4067 63.84H22.5467V59.76H26.8967V60.56Z" fill="#AF00D2"/>
<path d="M5.27 42.09C5.27 42.41 5.19 42.7167 5.03 43.01C4.87 43.2967 4.63333 43.5367 4.32 43.73C4.01333 43.9233 3.64333 44.0333 3.21 44.06V44.87H2.67V44.06C2.06333 44.0067 1.57 43.8133 1.19 43.48C0.81 43.14 0.616667 42.71 0.61 42.19H1.58C1.60667 42.47 1.71 42.7133 1.89 42.92C2.07667 43.1267 2.33667 43.2567 2.67 43.31V40.81C2.22333 40.6967 1.86333 40.58 1.59 40.46C1.31667 40.34 1.08333 40.1533 0.89 39.9C0.696667 39.6467 0.6 39.3067 0.6 38.88C0.6 38.34 0.786667 37.8933 1.16 37.54C1.54 37.1867 2.04333 36.99 2.67 36.95V36.12H3.21V36.95C3.77667 36.9967 4.23333 37.18 4.58 37.5C4.92667 37.8133 5.12667 38.2233 5.18 38.73H4.21C4.17667 38.4967 4.07333 38.2867 3.9 38.1C3.72667 37.9067 3.49667 37.78 3.21 37.72V40.16C3.65 40.2733 4.00667 40.39 4.28 40.51C4.56 40.6233 4.79333 40.8067 4.98 41.06C5.17333 41.3133 5.27 41.6567 5.27 42.09ZM1.53 38.83C1.53 39.1567 1.62667 39.4067 1.82 39.58C2.01333 39.7533 2.29667 39.8967 2.67 40.01V37.7C2.32333 37.7333 2.04667 37.8467 1.84 38.04C1.63333 38.2267 1.53 38.49 1.53 38.83ZM3.21 43.32C3.57 43.28 3.85 43.15 4.05 42.93C4.25667 42.71 4.36 42.4467 4.36 42.14C4.36 41.8133 4.26 41.5633 4.06 41.39C3.86 41.21 3.57667 41.0667 3.21 40.96V43.32ZM9.17672 43.27C10.0234 42.59 10.6867 42.0333 11.1667 41.6C11.6467 41.16 12.0501 40.7033 12.3767 40.23C12.7101 39.75 12.8767 39.28 12.8767 38.82C12.8767 38.3867 12.7701 38.0467 12.5567 37.8C12.3501 37.5467 12.0134 37.42 11.5467 37.42C11.0934 37.42 10.7401 37.5633 10.4867 37.85C10.2401 38.13 10.1067 38.5067 10.0867 38.98H9.20672C9.23339 38.2333 9.46005 37.6567 9.88672 37.25C10.3134 36.8433 10.8634 36.64 11.5367 36.64C12.2234 36.64 12.7667 36.83 13.1667 37.21C13.5734 37.59 13.7767 38.1133 13.7767 38.78C13.7767 39.3333 13.6101 39.8733 13.2767 40.4C12.9501 40.92 12.5767 41.38 12.1567 41.78C11.7367 42.1733 11.2001 42.6333 10.5467 43.16H13.9867V43.92H9.17672V43.27ZM19.5387 37.56H16.0287V39.84C16.182 39.6267 16.4087 39.4533 16.7087 39.32C17.0087 39.18 17.332 39.11 17.6787 39.11C18.232 39.11 18.682 39.2267 19.0287 39.46C19.3753 39.6867 19.622 39.9833 19.7687 40.35C19.922 40.71 19.9987 41.0933 19.9987 41.5C19.9987 41.98 19.9087 42.41 19.7287 42.79C19.5487 43.17 19.272 43.47 18.8987 43.69C18.532 43.91 18.0753 44.02 17.5287 44.02C16.8287 44.02 16.262 43.84 15.8287 43.48C15.3953 43.12 15.132 42.64 15.0387 42.04H15.9287C16.0153 42.42 16.1987 42.7167 16.4787 42.93C16.7587 43.1433 17.112 43.25 17.5387 43.25C18.0653 43.25 18.462 43.0933 18.7287 42.78C18.9953 42.46 19.1287 42.04 19.1287 41.52C19.1287 41 18.9953 40.6 18.7287 40.32C18.462 40.0333 18.0687 39.89 17.5487 39.89C17.1953 39.89 16.8853 39.9767 16.6187 40.15C16.3587 40.3167 16.1687 40.5467 16.0487 40.84H15.1887V36.76H19.5387V37.56Z" fill="#BF0003"/>
<path d="M56.5 8C65.1195 8 73.386 11.4241 79.481 17.519C85.5759 23.614 89 31.8805 89 40.5C89 49.1195 85.5759 57.386 79.481 63.481C73.386 69.5759 65.1195 73 56.5 73V63.9C62.7061 63.9 68.658 61.4347 73.0463 57.0463C77.4347 52.6579 79.9 46.7061 79.9 40.5C79.9 34.2939 77.4347 28.3421 73.0463 23.9537C68.6579 19.5653 62.7061 17.1 56.5 17.1V8Z" fill="#008DD2"/>
<path d="M33.519 63.481C31.5107 61.4726 29.7743 59.2097 28.3542 56.75L36.235 52.2C37.2575 53.971 38.5077 55.6003 39.9537 57.0463L33.519 63.481Z" fill="#AF00D2"/>
<path d="M28.3542 56.75C25.5017 51.8094 24 46.2049 24 40.5C24 34.7951 25.5017 29.1906 28.3542 24.25L36.235 28.8C34.1812 32.3573 33.1 36.3924 33.1 40.5C33.1 44.6076 34.1812 48.6428 36.235 52.2L28.3542 56.75Z" fill="#BF0003"/>
<path d="M28.3542 24.25C31.2066 19.3094 35.3094 15.2066 40.25 12.3542C45.1906 9.5017 50.7951 8 56.5 8V17.1C52.3924 17.1 48.3572 18.1812 44.8 20.235C41.2428 22.2888 38.2888 25.2428 36.235 28.8L28.3542 24.25Z" fill="#052C4D"/>
<path d="M56.5 73C47.8805 73 39.614 69.5759 33.519 63.481L39.9537 57.0463C44.3421 61.4347 50.2939 63.9 56.5 63.9V73Z" fill="#FFB412"/>
<path d="M56.5 8C62.7152 8 68.8001 9.78214 74.0332 13.1351C79.2664 16.4881 83.4284 21.2714 86.0258 26.9178L77.7586 30.7208C75.8884 26.6554 72.8918 23.2115 69.1239 20.7973C65.356 18.3831 60.9749 17.1 56.5 17.1V8Z" fill="#89D200"/>
</svg>
