<svg width="16" height="18" viewBox="0 0 16 18" fill="none" xmlns="http://www.w3.org/2000/svg">
<path d="M5.73214 1.47955C5.80357 1.24773 6.02857 1.09091 6.27857 1.09091H9.72143C9.975 1.09091 10.1964 1.24773 10.2679 1.47955L10.6607 2.72727H5.33929L5.73214 1.47955ZM4.14643 2.72727H0.571429C0.257143 2.72727 0 2.97273 0 3.27273C0 3.57273 0.257143 3.81818 0.571429 3.81818H15.4286C15.7429 3.81818 16 3.57273 16 3.27273C16 2.97273 15.7429 2.72727 15.4286 2.72727H11.8536L11.3643 1.16591C11.1464 0.473864 10.4786 0 9.72143 0H6.27857C5.52143 0 4.85357 0.473864 4.63571 1.16591L4.14643 2.72727ZM1.14286 5.45455V15.8182C1.14286 17.0216 2.16786 18 3.42857 18H12.5714C13.8321 18 14.8571 17.0216 14.8571 15.8182V5.45455H13.7143V15.8182C13.7143 16.4216 13.2036 16.9091 12.5714 16.9091H3.42857C2.79643 16.9091 2.28571 16.4216 2.28571 15.8182V5.45455H1.14286ZM5.14286 7.63636C5.14286 7.33636 4.88571 7.09091 4.57143 7.09091C4.25714 7.09091 4 7.33636 4 7.63636V14.1818C4 14.4818 4.25714 14.7273 4.57143 14.7273C4.88571 14.7273 5.14286 14.4818 5.14286 14.1818V7.63636ZM8.57143 7.63636C8.57143 7.33636 8.31429 7.09091 8 7.09091C7.68571 7.09091 7.42857 7.33636 7.42857 7.63636V14.1818C7.42857 14.4818 7.68571 14.7273 8 14.7273C8.31429 14.7273 8.57143 14.4818 8.57143 14.1818V7.63636ZM12 7.63636C12 7.33636 11.7429 7.09091 11.4286 7.09091C11.1143 7.09091 10.8571 7.33636 10.8571 7.63636V14.1818C10.8571 14.4818 11.1143 14.7273 11.4286 14.7273C11.7429 14.7273 12 14.4818 12 14.1818V7.63636Z" fill="#008DD2"/>
</svg>
