<svg width="17" height="17" viewBox="0 0 17 17" fill="none" xmlns="http://www.w3.org/2000/svg">
<path d="M15.2085 1.3867L15.6133 1.7915C16.0315 2.20968 16.0315 2.88881 15.6133 3.307L14.7201 4.20024L12.7998 2.27994L13.6963 1.3867C14.1145 0.968513 14.7937 0.968513 15.2118 1.3867H15.2085ZM6.32294 8.75677L12.0437 3.03936L13.964 4.95966L8.24323 10.6804C8.10273 10.8209 7.92207 10.9213 7.72803 10.9681L5.5334 11.4733L6.03857 9.27866C6.08206 9.08462 6.18243 8.90396 6.32628 8.76346L6.32294 8.75677ZM12.9369 0.627275L5.56686 8.00069C5.28249 8.28505 5.08511 8.64302 4.99478 9.03444L4.29558 12.0654C4.25544 12.2461 4.30896 12.4334 4.43944 12.5639C4.56991 12.6944 4.75726 12.7479 4.93791 12.7078L7.96891 12.0086C8.36033 11.9182 8.71829 11.7209 9.00266 11.4365L16.3727 4.06307C17.2091 3.22671 17.2091 1.87179 16.3727 1.03542L15.9679 0.627275C15.1316 -0.209092 13.7766 -0.209092 12.9403 0.627275H12.9369ZM2.67637 2.0123C1.19768 2.0123 0 3.20998 0 4.68867V14.3236C0 15.8023 1.19768 17 2.67637 17H12.3113C13.79 17 14.9877 15.8023 14.9877 14.3236V10.0414C14.9877 9.74702 14.7468 9.50615 14.4524 9.50615C14.158 9.50615 13.9171 9.74702 13.9171 10.0414V14.3236C13.9171 15.2102 13.1979 15.9295 12.3113 15.9295H2.67637C1.78983 15.9295 1.07055 15.2102 1.07055 14.3236V4.68867C1.07055 3.80213 1.78983 3.08285 2.67637 3.08285H6.95857C7.25298 3.08285 7.49385 2.84198 7.49385 2.54757C7.49385 2.25317 7.25298 2.0123 6.95857 2.0123H2.67637Z" fill="#008DD2"/>
</svg>
