<svg width="25" height="25" viewBox="0 0 25 25" fill="none" xmlns="http://www.w3.org/2000/svg">
<path d="M21.4286 1.78571C22.4163 1.78571 23.2143 2.58371 23.2143 3.57143V21.4286C23.2143 22.4163 22.4163 23.2143 21.4286 23.2143H3.57143C2.58371 23.2143 1.78571 22.4163 1.78571 21.4286V3.57143C1.78571 2.58371 2.58371 1.78571 3.57143 1.78571H21.4286ZM3.57143 0C1.60156 0 0 1.60156 0 3.57143V21.4286C0 23.3984 1.60156 25 3.57143 25H21.4286C23.3984 25 25 23.3984 25 21.4286V3.57143C25 1.60156 23.3984 0 21.4286 0H3.57143ZM7.14286 8.03571C6.65179 8.03571 6.25 7.63393 6.25 7.14286C6.25 6.65179 6.65179 6.25 7.14286 6.25C7.63393 6.25 8.03571 6.65179 8.03571 7.14286C8.03571 7.63393 7.63393 8.03571 7.14286 8.03571ZM4.46429 7.14286C4.46429 8.62165 5.66406 9.82143 7.14286 9.82143C8.62165 9.82143 9.82143 8.62165 9.82143 7.14286C9.82143 5.66406 8.62165 4.46429 7.14286 4.46429C5.66406 4.46429 4.46429 5.66406 4.46429 7.14286ZM13.9118 10.4743C13.9955 10.346 14.135 10.2679 14.2857 10.2679C14.4364 10.2679 14.5759 10.346 14.6596 10.4743L19.5703 18.0636C19.6596 18.2031 19.6652 18.3761 19.5871 18.5212C19.5089 18.6663 19.3583 18.7556 19.1964 18.7556H5.80357C5.63616 18.7556 5.48549 18.6607 5.40737 18.5156C5.32924 18.3705 5.3404 18.192 5.43527 18.0525L8.56027 13.5882C8.64397 13.471 8.7779 13.3984 8.92857 13.3984C9.07924 13.3984 9.21317 13.471 9.29688 13.5882L9.88839 14.4364C10.0614 14.6819 10.3404 14.8214 10.6362 14.8158C10.9319 14.8103 11.2054 14.6596 11.3672 14.4085L13.9118 10.4799V10.4743ZM14.2857 8.48214C13.5268 8.48214 12.8237 8.86719 12.4107 9.50335L10.5748 12.3382C10.1562 11.875 9.55915 11.6071 8.92299 11.6071C8.19196 11.6071 7.51116 11.9643 7.09263 12.5614L3.96763 17.0257C3.48772 17.7065 3.43192 18.5993 3.81696 19.3359C4.20201 20.0725 4.9721 20.5357 5.80357 20.5357H19.1964C20.0167 20.5357 20.7645 20.0893 21.1551 19.3694C21.5458 18.6496 21.5123 17.779 21.0658 17.0926L16.1551 9.50335C15.7422 8.86719 15.0391 8.48214 14.2801 8.48214H14.2857Z" fill="#008DD2"/>
</svg>
