<svg width="16" height="16" viewBox="0 0 16 16" fill="none" xmlns="http://www.w3.org/2000/svg">
<path d="M15 8C15 4.13438 11.8656 1 8 1C4.13438 1 1 4.13438 1 8C1 11.8656 4.13438 15 8 15C11.8656 15 15 11.8656 15 8ZM0 8C0 3.58125 3.58125 0 8 0C12.4187 0 16 3.58125 16 8C16 12.4187 12.4187 16 8 16C3.58125 16 0 12.4187 0 8ZM8 5C7.17188 5 6.5 5.67188 6.5 6.5C6.5 6.775 6.275 7 6 7C5.725 7 5.5 6.775 5.5 6.5C5.5 5.11875 6.61875 4 8 4C9.38125 4 10.5 5.11875 10.5 6.5C10.5 7.7375 9.69687 8.38438 9.05625 8.69063C8.69687 8.8625 8.5 9.14375 8.5 9.38437V9.5625C8.5 9.8375 8.275 10.0625 8 10.0625C7.725 10.0625 7.5 9.8375 7.5 9.5625V9.38437C7.5 8.61562 8.07187 8.05312 8.625 7.79062C9.07812 7.575 9.5 7.20312 9.5 6.50313C9.5 5.675 8.82812 5.00313 8 5.00313V5ZM7.25 11.75C7.25 11.3344 7.58437 11 8 11C8.41562 11 8.75 11.3344 8.75 11.75C8.75 12.1656 8.41562 12.5 8 12.5C7.58437 12.5 7.25 12.1656 7.25 11.75Z" fill="#008DD2"/>
</svg>
