<svg width="22" height="22" viewBox="0 0 22 22" fill="none" xmlns="http://www.w3.org/2000/svg">
<path d="M11.9347 0.367419C11.4061 -0.122473 10.5896 -0.122473 10.0653 0.367419L0.438584 9.30579C0.0260122 9.69255 -0.111512 10.2899 0.0947742 10.8141C0.30106 11.3384 0.803882 11.6865 1.37117 11.6865H2.05879V19.2497C2.05879 20.7667 3.29221 22 4.80927 22H17.1864C18.7035 22 19.9369 20.7667 19.9369 19.2497V11.6865H20.6245C21.1918 11.6865 21.6989 11.3384 21.9052 10.8141C22.1115 10.2899 21.974 9.68825 21.5614 9.30579L11.9347 0.367419ZM10.3102 13.7492H11.6855C12.8243 13.7492 13.7483 14.6731 13.7483 15.8119V19.9373H8.24737V15.8119C8.24737 14.6731 9.17136 13.7492 10.3102 13.7492Z" fill="#008DD2"/>
</svg>
