<svg width="156" height="164" viewBox="0 0 156 164" fill="none" xmlns="http://www.w3.org/2000/svg">
<g clip-path="url(#clip0_15_2)">
<path fill-rule="evenodd" clip-rule="evenodd" d="M15.4739 41.9612C16.495 41.9612 22.7788 42.0398 22.7788 42.0398V51.1513H18.066C12.1749 51.1513 12.4105 59.8701 18.066 59.8701H131.41C138.872 59.8701 147.591 67.4893 147.591 75.1869V89.0899C147.434 89.0899 147.356 89.0899 147.12 89.0899H110.045C106.118 89.0899 102.976 92.2318 102.976 96.1592V127.578C102.976 131.506 106.118 134.726 110.045 134.726H147.12C147.356 134.726 147.434 134.726 147.591 134.648V147.922C147.591 156.484 140.679 163.396 132.196 163.396H15.4739C6.99075 163.396 0 156.484 0 147.922V57.4351C0 48.952 6.99075 41.9612 15.4739 41.9612Z" fill="#008DD2"/>
<path fill-rule="evenodd" clip-rule="evenodd" d="M112.559 95.3737H152.304C154.268 95.3737 155.917 97.0232 155.917 98.9869V124.515C155.917 126.479 154.268 128.128 152.304 128.128H112.559C110.595 128.128 109.024 126.479 109.024 124.515V98.9869C109.024 97.0232 110.595 95.3737 112.559 95.3737ZM124.498 104.878C128.268 104.878 131.41 107.941 131.41 111.712C131.41 115.56 128.268 118.624 124.498 118.624C120.728 118.624 117.664 115.56 117.664 111.712C117.664 107.941 120.728 104.878 124.498 104.878Z" fill="#052C4D"/>
<path d="M54.8263 25.9375H31.5762V51.1513H54.8263V25.9375Z" fill="#052C4D"/>
<path d="M87.2665 13.2913H64.0164V51.2299H87.2665V13.2913Z" fill="#052C4D"/>
<path d="M120.335 0.0167542H97.085V51.2299H120.335V0.0167542Z" fill="#052C4D"/>
<path fill-rule="evenodd" clip-rule="evenodd" d="M26.4706 96.2377L25.4495 127.578L56.0045 136.847L57.0256 105.742L45.9504 102.286L45.4006 117.838L49.328 118.702L41.0019 125.929L33.5399 114.304L37.3887 115.403L37.6244 99.6153L26.4706 96.2377Z" fill="#FEFEFE"/>
<path fill-rule="evenodd" clip-rule="evenodd" d="M75.9556 127.264L77.0553 95.9235L46.5002 86.6549L45.4006 117.76L56.5544 121.216L57.0256 105.663L53.0983 104.799L61.5029 97.4945L68.8863 109.198L65.1161 108.098L64.8019 123.887C64.8019 123.887 76.0342 127.264 75.9556 127.264Z" fill="#FEFEFE"/>
</g>
<defs>
<clipPath id="clip0_15_2">
<rect width="155.917" height="163.413" fill="white"/>
</clipPath>
</defs>
</svg>
