<svg width="16" height="18" viewBox="0 0 16 18" fill="none" xmlns="http://www.w3.org/2000/svg">
<path d="M8 0C7.68571 0 7.42857 0.253125 7.42857 0.5625V1.15313C4.53929 1.43438 2.28571 3.83203 2.28571 6.75V7.11211C2.28571 8.69766 1.73571 10.2375 0.732143 11.475L0.371429 11.918C0.132143 12.2133 0 12.5824 0 12.9586C0 13.8797 0.757143 14.625 1.69286 14.625H14.3071C15.2429 14.625 16 13.8797 16 12.9586C16 12.5789 15.8679 12.2133 15.6286 11.918L15.2679 11.475C14.2607 10.2375 13.7143 8.69766 13.7143 7.11211V6.75C13.7143 3.83203 11.4607 1.43438 8.57143 1.15313V0.5625C8.57143 0.253125 8.31429 0 8 0ZM8 2.25C10.525 2.25 12.5714 4.26445 12.5714 6.75V7.11211C12.5714 8.9543 13.2071 10.7402 14.3786 12.1781L14.7357 12.6211C14.8143 12.716 14.8571 12.8355 14.8571 12.9586C14.8571 13.2574 14.6107 13.5 14.3071 13.5H1.69286C1.38929 13.5 1.14286 13.2574 1.14286 12.9586C1.14286 12.8355 1.18571 12.716 1.26429 12.6211L1.625 12.1781C2.79286 10.7402 3.42857 8.9543 3.42857 7.11211V6.75C3.42857 4.26445 5.475 2.25 8 2.25ZM5.575 16.3125C5.92857 17.2969 6.88214 18 8 18C9.11786 18 10.0714 17.2969 10.425 16.3125H9.14286C8.88214 16.6535 8.46786 16.875 8 16.875C7.53214 16.875 7.11786 16.6535 6.85714 16.3125H5.575Z" fill="#008DD2"/>
</svg>
