<svg width="16" height="19" viewBox="0 0 16 19" fill="none" xmlns="http://www.w3.org/2000/svg">
<path d="M7.99998 8.92305C8.85196 8.92305 9.68481 8.67041 10.3932 8.19707C11.1016 7.72374 11.6537 7.05097 11.9798 6.26384C12.3058 5.47672 12.3911 4.61059 12.2249 3.77498C12.0587 2.93937 11.6484 2.17181 11.046 1.56937C10.4435 0.966931 9.67598 0.556664 8.84037 0.390451C8.00476 0.224238 7.13863 0.309545 6.3515 0.635583C5.56438 0.961621 4.89161 1.51375 4.41827 2.22214C3.94494 2.93054 3.6923 3.76338 3.6923 4.61536C3.6923 5.75783 4.14614 6.85351 4.95399 7.66136C5.76184 8.4692 6.85751 8.92305 7.99998 8.92305ZM7.99998 1.53845C8.60854 1.53845 9.20343 1.7189 9.70942 2.057C10.2154 2.3951 10.6098 2.87565 10.8427 3.43788C11.0756 4.00011 11.1365 4.61878 11.0178 5.21564C10.8991 5.8125 10.606 6.36076 10.1757 6.79107C9.74537 7.22139 9.19712 7.51444 8.60026 7.63316C8.0034 7.75188 7.38473 7.69095 6.8225 7.45807C6.26026 7.22518 5.77971 6.8308 5.44162 6.32481C5.10352 5.81881 4.92306 5.22392 4.92306 4.61536C4.92306 3.79931 5.24724 3.01669 5.82427 2.43966C6.40131 1.86262 7.18393 1.53845 7.99998 1.53845Z" fill="#008DD2"/>
<path d="M15.6738 13.4584C14.6869 12.4154 13.4977 11.5845 12.1788 11.0167C10.8599 10.4489 9.43901 10.156 8.00306 10.156C6.56712 10.156 5.14626 10.4489 3.82735 11.0167C2.50844 11.5845 1.31919 12.4154 0.332309 13.4584C0.118347 13.687 -0.000484253 13.9884 1.48326e-06 14.3015V17.5384C1.48326e-06 17.8648 0.129671 18.1779 0.360485 18.4087C0.591298 18.6395 0.904349 18.7692 1.23077 18.7692H14.7692C15.0956 18.7692 15.4087 18.6395 15.6395 18.4087C15.8703 18.1779 16 17.8648 16 17.5384V14.3015C16.0021 13.9893 15.8855 13.6879 15.6738 13.4584ZM14.7692 17.5384H1.23077V14.2953C2.10291 13.377 3.15279 12.6457 4.31652 12.146C5.48025 11.6463 6.7335 11.3886 7.99999 11.3886C9.26647 11.3886 10.5197 11.6463 11.6835 12.146C12.8472 12.6457 13.8971 13.377 14.7692 14.2953V17.5384Z" fill="#008DD2"/>
</svg>
