<svg width="16" height="20" viewBox="0 0 16 20" fill="none" xmlns="http://www.w3.org/2000/svg">
<path fill-rule="evenodd" clip-rule="evenodd" d="M11.1978 5.5578L13.7486 5.56711C13.7455 6.2467 13.4725 6.89837 12.9884 7.37471C12.8735 7.48798 12.7494 7.58883 12.616 7.67882L11.1978 5.5578ZM0.183088 18.931C0.0760279 18.8813 0 18.7742 0 18.647V0.310318C0 0.139643 0.138092 0 0.310318 0H3.3204H15.6897C15.8604 0 16 0.138092 16 0.310318V17.0256C16 17.0427 15.9984 17.0582 15.9969 17.0737C15.9535 17.6835 15.7548 18.1583 15.398 18.4981C15.0411 18.8363 14.54 19.0256 13.8898 19.0628C13.8759 19.0644 13.8635 19.0659 13.8495 19.0659H0.4391C0.333592 19.0659 0.238945 19.0116 0.183088 18.931ZM5.50815 5.41505H6.28549C6.32739 5.41505 6.35997 5.44919 6.35997 5.48953V7.01784C6.35997 7.05974 6.32583 7.09232 6.28549 7.09232H5.50815C5.46625 7.09232 5.43367 7.05818 5.43367 7.01784V5.48953C5.43367 5.44919 5.46625 5.41505 5.50815 5.41505ZM2.61443 4.47944H3.39178C3.43367 4.47944 3.46625 4.51358 3.46625 4.55392V7.0194C3.46625 7.06129 3.43212 7.09387 3.39178 7.09387H2.61443C2.57254 7.09387 2.53995 7.05974 2.53995 7.0194V4.55392C2.5384 4.51358 2.57254 4.47944 2.61443 4.47944ZM4.06206 3.95345H4.83941C4.8813 3.95345 4.91389 3.98759 4.91389 4.02793V7.0194C4.91389 7.06129 4.87975 7.09387 4.83941 7.09387H4.06206C4.02017 7.09387 3.98759 7.05974 3.98759 7.0194V4.02793C3.98604 3.98604 4.02017 3.95345 4.06206 3.95345ZM15.3809 17.0178V0.619085H3.3204H0.619085V18.4469H13.8479H13.8542C14.3522 18.4189 14.7246 18.2855 14.9713 18.0512C15.2149 17.82 15.3499 17.474 15.3809 17.0178ZM2.60978 16.5462C2.44065 16.5462 2.30256 16.4081 2.30256 16.2358C2.30256 16.0652 2.4391 15.9271 2.60978 15.9271H13.5485C13.7176 15.9271 13.8557 16.0652 13.8557 16.2358C13.8557 16.4065 13.7192 16.5462 13.5485 16.5462H2.60978ZM2.65943 14.287C2.4903 14.287 2.35221 14.149 2.35221 13.9767C2.35221 13.8061 2.48875 13.6664 2.65943 13.6664H13.5206C13.6897 13.6664 13.8278 13.8045 13.8278 13.9767C13.8278 14.1474 13.6912 14.287 13.5206 14.287H2.65943ZM2.60978 12.0279C2.44065 12.0279 2.30256 11.8898 2.30256 11.7176C2.30256 11.5469 2.4391 11.4088 2.60978 11.4088H7.28472C7.45384 11.4088 7.59193 11.5469 7.59193 11.7176C7.59193 11.8883 7.45539 12.0279 7.28472 12.0279H2.60978ZM8.47789 12.0279C8.30877 12.0279 8.17068 11.8898 8.17068 11.7176C8.17068 11.5469 8.30721 11.4088 8.47789 11.4088H13.5206C13.6897 11.4088 13.8278 11.5469 13.8278 11.7176C13.8278 11.8883 13.6912 12.0279 13.5206 12.0279H8.47789ZM2.60978 10.0124C2.44065 10.0124 2.30256 9.87432 2.30256 9.7021C2.30256 9.53142 2.4391 9.39178 2.60978 9.39178H6.46393C6.63305 9.39178 6.77114 9.52987 6.77114 9.7021C6.77114 9.87277 6.6346 10.0124 6.46393 10.0124H2.60978ZM2.60978 2.15826C2.44065 2.15826 2.30256 2.02017 2.30256 1.84794C2.30256 1.67572 2.4391 1.53763 2.60978 1.53763H4.91234C5.08146 1.53763 5.21955 1.67572 5.21955 1.84794C5.21955 2.02017 5.08301 2.15826 4.91234 2.15826H2.60978ZM10.9372 5.05198L10.8006 2.32583C10.7975 2.27153 10.8394 2.22653 10.8937 2.22343C10.9092 2.22188 10.9279 2.22188 10.948 2.22188C10.9651 2.22188 10.9837 2.22033 11.0023 2.22033C11.7517 2.21257 12.4375 2.49651 12.9511 2.96819C13.4647 3.44143 13.8045 4.10241 13.8573 4.85027C13.8604 4.90458 13.82 4.95113 13.7673 4.95423L11.0396 5.14973C10.9853 5.15283 10.9387 5.11249 10.9356 5.05974C10.9372 5.05663 10.9372 5.05353 10.9372 5.05198ZM11.0008 2.41583L11.128 4.94802L13.6571 4.76804C13.5857 4.11171 13.277 3.53297 12.8223 3.11404C12.3445 2.67339 11.7036 2.40962 11.007 2.41738L11.0008 2.41583ZM10.6315 5.43988L11.9984 7.8076C11.5826 8.0481 11.1109 8.17378 10.6315 8.17378C9.1218 8.17378 7.8976 6.94957 7.8976 5.43988C7.8976 4.08379 8.89216 2.93095 10.2343 2.73545L10.6315 5.43988Z" fill="#008DD2"/>
</svg>
