<svg width="16" height="20" viewBox="0 0 16 20" fill="none" xmlns="http://www.w3.org/2000/svg">
<path d="M10.4382 17.9541L14.0119 14.279H10.4382V17.9541ZM3.14942 14.6484H6.34876V15.5485H3.14942V14.6484ZM3.14942 12.3698H7.68972V13.2699H3.14942V12.3698ZM3.14942 10.0911H12.8489V10.9912H3.14942V10.0814V10.0911ZM16 13.8102C16.0001 13.9373 15.9578 14.061 15.8794 14.1624C15.801 14.2638 15.6909 14.3373 15.5658 14.3717L10.3034 19.7852C10.2481 19.8522 10.1782 19.9063 10.0987 19.9435C10.0192 19.9806 9.93231 19.9999 9.84424 20H1.06977C0.929227 20.0002 0.79002 19.9733 0.66013 19.9208C0.530241 19.8683 0.412223 19.7912 0.312842 19.694C0.213461 19.5967 0.13467 19.4813 0.0809866 19.3542C0.0273032 19.2271 -0.000217792 19.0909 1.29787e-06 18.9535V1.04655C-0.000217792 0.909056 0.0273032 0.77287 0.0809866 0.6458C0.13467 0.51873 0.213461 0.403274 0.312842 0.306051C0.412223 0.208827 0.530241 0.131747 0.66013 0.0792286C0.79002 0.0267105 0.929227 -0.000213064 1.06977 1.2697e-06H14.9302C15.2138 0.000431728 15.4857 0.110831 15.6862 0.307004C15.8867 0.503177 15.9996 0.769121 16 1.04655V13.8102ZM14.8071 13.1104V1.16862H1.19455V18.8363H9.24363V13.6979C9.24363 13.5421 9.30691 13.3926 9.41955 13.2824C9.53218 13.1723 9.68495 13.1104 9.84424 13.1104H14.8071Z" fill="#008DD2"/>
</svg>
