<svg width="25" height="18" viewBox="0 0 25 18" fill="none" xmlns="http://www.w3.org/2000/svg">
<path d="M2.17634 0.703521C1.69643 0.759769 1.33929 1.16476 1.33929 1.6485C1.33929 2.17161 1.75781 2.59348 2.27121 2.5991H8.48772C8.9788 2.59348 9.375 2.19411 9.375 1.69912V0.900391C9.375 0.366028 8.91183 -0.0558372 8.3817 0.00603641L2.17634 0.703521ZM8.78906 4.39344H1.9308C1.84152 4.71405 1.79129 5.05155 1.79129 5.40029C1.79129 7.38587 3.39286 9.00021 5.36272 9.00021C7.33259 9.00021 8.93415 7.38587 8.93415 5.40029C8.93415 5.05155 8.88393 4.71405 8.79464 4.39344H8.78906ZM0 14.4001V16.2C0 17.1956 0.797991 18 1.78571 18H8.92857C9.02902 18 9.12388 17.9944 9.21875 17.9775L1.17188 11.7339C0.452009 12.392 0 13.3426 0 14.4001ZM10.6138 16.7907C10.6752 16.605 10.7143 16.4082 10.7143 16.2V14.4001C10.7143 12.4145 9.11272 10.8002 7.14286 10.8002H3.57143C3.36496 10.8002 3.15848 10.817 2.96317 10.8508L10.6138 16.7907ZM19.6429 9.00021C21.6127 9.00021 23.2143 7.38587 23.2143 5.40029C23.2143 3.41471 21.6127 1.80037 19.6429 1.80037C17.673 1.80037 16.0714 3.41471 16.0714 5.40029C16.0714 7.38587 17.673 9.00021 19.6429 9.00021ZM17.8571 10.8002C15.8873 10.8002 14.2857 12.4145 14.2857 14.4001V16.2C14.2857 17.1956 15.0837 18 16.0714 18H23.2143C24.202 18 25 17.1956 25 16.2V14.4001C25 12.4145 23.3984 10.8002 21.4286 10.8002H17.8571Z" fill="#008DD2"/>
</svg>
