<svg width="26" height="25" viewBox="0 0 26 25" fill="none" xmlns="http://www.w3.org/2000/svg">
<path d="M12.8466 13.7755C16.6536 13.7755 19.7594 10.6948 19.7594 6.88776C19.7594 3.08071 16.6536 3.8147e-06 12.8466 3.8147e-06C9.03965 3.8147e-06 5.95898 3.08071 5.95898 6.88776C5.95898 10.6948 9.03965 13.7755 12.8466 13.7755ZM12.8466 1.80334C15.6518 1.80334 17.931 4.08256 17.931 6.88776C17.931 9.69295 15.6518 11.9471 12.8466 11.9471C10.0415 11.9471 7.7623 9.6679 7.7623 6.86271C7.7623 4.05752 10.0665 1.80334 12.8466 1.80334Z" fill="#008DD2"/>
<path d="M0.926704 24.5455H24.8707C25.3716 24.5455 25.7724 24.1447 25.7724 23.6438C25.7724 18.885 21.8902 14.9777 17.1065 14.9777H8.66593C3.90718 14.9777 0 18.8599 0 23.6438C0 24.1447 0.425783 24.5455 0.926704 24.5455ZM8.66593 16.8061H17.1315C20.6129 16.8061 23.4681 19.3859 23.8939 22.7421H1.9035C2.32928 19.411 5.18453 16.8061 8.66593 16.8061Z" fill="#008DD2"/>
</svg>
